# xmcd CD database file
#
# Track frame offsets:
#	150
#	52858
#	89421
#	178173
#	214501
#	242134
#	276272
#	297794
#
# Disc length: 4363 seconds
#
# Revision: 2
# Processed by: cddbd v1.4b41PL1 Copyright (c) Steve Scherf et al.
# Submitted via: Feurio! 1.50.2ß - http://www.feurio.com
#
DISCID=71110908
DTITLE=Grateful Dead - Fallout From The Phil Zone Disc 2
DYEAR=1900
DGENRE=
TTITLE0=Dancin' In The Streets
TTITLE1=New Speedway Boogie
TTITLE2=Viola Lee Blues
TTITLE3=Easy Wind
TTITLE4=Mason's Children
TTITLE5=Hard To Handle
TTITLE6=Dylan/Garcia - Deep Blue Sea - Simple Twist Of Fate
TTITLE7=Dylan/Garcia - Deep Blue Sea - Man Gave Names To All The Animals
EXTD=
EXTT0=
EXTT1=
EXTT2=
EXTT3=
EXTT4=
EXTT5=
EXTT6=
EXTT7=
PLAYORDER=
